<svg data-v-0dd9719b="" version="1.0" xmlns="http://www.w3.org/2000/svg" xmlns:xlink="http://www.w3.org/1999/xlink" width="100%" height="100%" viewBox="0 0 340.000000 250.000000" preserveAspectRatio="xMidYMid meet" color-interpolation-filters="sRGB" style="margin: auto;"> <rect data-v-0dd9719b="" x="0" y="0" width="100%" height="100%" fill="#ffffff" fill-opacity="1" class="background"></rect> <rect data-v-0dd9719b="" x="0" y="0" width="100%" height="100%" fill="url(#watermark)" fill-opacity="1" class="watermarklayer"></rect> <g data-v-0dd9719b="" fill="#333" class="icon-text-wrapper icon-svg-group iconsvg" transform="translate(40.20001220703125,97.48928451538086)"><g class="iconsvg-imagesvg" transform="translate(0,0)"><g><rect fill="#333" fill-opacity="0" stroke-width="2" x="0" y="0" width="55" height="54.979107938983184" class="image-rect"></rect> <svg x="0" y="0" width="55" height="54.979107938983184" filtersec="colorsb4359522044" class="image-svg-svg primary" style="overflow: visible;"><svg xmlns="http://www.w3.org/2000/svg" viewBox="-0.024392234161496162 -0.00439166696742177 206.4888916015625 206.41061401367188"><title>资源 7</title><g fill-rule="evenodd"><path d="M176.24 176.18a102.91 102.91 0 0 1-76.44 30.16c-8.75-.29-10.94-10.72-6.79-17 17.92-27.07 75.72-28.09 101.23-60a56.23 56.23 0 0 0 10.57-21.88c.56-2.21 1.26-4.67 1.63-6.42a102.92 102.92 0 0 1-30.2 75.1z" fill="#03b2de" opacity=".48"></path><path d="M176.18 176.24a102.92 102.92 0 0 0 30.16-76.44c-.29-8.76-10.73-10.94-17-6.79C168.21 107 163 145.3 146.5 173.56c-9.44 16.21-25.92 31.19-45.38 32.82a102.78 102.78 0 0 0 75.06-30.14z" fill="#8e03ff" opacity=".48"></path><path d="M30.22 30.28A102.94 102.94 0 0 1 106.66.12c8.77.29 10.94 10.73 6.79 17-17.91 27.07-75.72 28.09-101.23 60A56.23 56.23 0 0 0 1.65 99c-.56 2.17-1.25 4.63-1.65 6.38a102.93 102.93 0 0 1 30.2-75.1z" fill="#00deb9" opacity=".48"></path><path d="M30.28 30.22A102.94 102.94 0 0 0 .12 106.66c.29 8.77 10.73 10.94 17 6.79 27.07-17.91 28.09-75.72 60-101.23A56.23 56.23 0 0 1 99 1.65c2.21-.56 4.67-1.25 6.42-1.63a102.93 102.93 0 0 0-75.1 30.2z" fill="#1d88e1" opacity=".48"></path><path d="M44 187.8c-32.11-55.4 181.83-82.46 145-142a103.71 103.71 0 0 0-26.5-27.07c25.84 44.36-100 69.18-138.89 106.54C12.3 136.12 10.9 151.63 20 164.34a103.82 103.82 0 0 0 24 23.46z" fill="#8e03ff" opacity=".48"></path><path d="M187.75 44c-51.41-29.78-77.2 148.08-127.43 150-4.47.18-9.6-2-14.56-5a103.71 103.71 0 0 1-27.07-26.5C71.5 193.28 96.63 9 148.17 12.54c4.69.32 10.6 3.57 16.11 7.51a104.32 104.32 0 0 1 23.47 24z" fill="#1d88e1" opacity=".48"></path></g></svg></svg> <!----></g></g> <g transform="translate(62,1.9576778411865234)"><g data-gra="path-name" fill-rule="" class="tp-name iconsvg-namesvg" transform="translate(0,0)"><g transform="scale(1)"><g><path d="M1.64-0.32L1.32-1.44 39.12-1.44 39.12-0.32Q39.12-0.32 1.64-0.32L1.64-0.32ZM6.48-14.8L6.16-15.96 33.72-15.96 33.72-14.8 6.48-14.8ZM3.8-27.96L3.48-29.12 36.96-29.12 36.96-27.96 3.8-27.96ZM61.92-29.12L58.16-29.12 58.16-0.4 61.92-0.4 61.92-29.12ZM66.72-0.4L78.92-0.4 78.92 0.76Q78.92 0.76 41.76 0.76L41.76 0.76 41.4-0.4 53.36-0.4 53.36-29.12 43.04-29.12 42.72-30.24 77.04-30.24 77.04-29.12 66.72-29.12 66.72-10.2Q69.68-17.76 71.24-23.64L71.24-23.64 75.52-20.92Q71.6-13.2 66.72-7.84L66.72-7.84 66.72-0.4ZM44.92-22.56L44.92-22.56 45.48-22.72Q51.28-18.04 52.48-12.76L52.48-12.76Q53.2-9.48 51.88-7.84L51.88-7.84Q50.68-6.4 48.92-7.68L48.92-7.68Q48.64-7.88 48.36-8.16L48.36-8.16Q48.32-13.64 44.92-22.56ZM93.08-5.28L93.08-0.36 106.8-0.36 106.8-5.28 93.08-5.28ZM106.8-6.44L106.8-11.04 93.08-11.04 93.08-6.44 106.8-6.44ZM93.4-12.16L111.52-12.16 111.52 2.2Q111.48 2.44 110.04 2.88L110.04 2.88Q108.64 3.32 107.6 3.32L107.6 3.32 106.8 3.32 106.8 0.76 93.08 0.76 93.08 2.08Q93.08 2.28 92.52 2.6L92.52 2.6Q91.96 2.96 91 3.24 90.04 3.52 89.16 3.52L89.16 3.52 88.48 3.52 88.48-14.12 93.4-12.16ZM101.68-26.44L98-26.44 98-16.52 101.68-16.52 101.68-26.44ZM106.08-16.52L118.64-16.52 118.64-15.4Q118.64-15.4 81.76-15.4L81.76-15.4 81.4-16.52 93.68-16.52 93.68-26.44 83.72-26.44 83.4-27.6 93.92-27.6Q93.84-27.64 93.36-27.92L93.36-27.92Q92.88-30.88 90.44-33.64L90.44-33.64 90.76-33.88Q94.2-33.52 95.88-32.16L95.88-32.16Q97.6-30.84 97.44-29.52L97.44-29.52Q97.32-28.24 96.2-27.6L96.2-27.6 102.16-27.6Q103.52-31.36 104.2-34.08L104.2-34.08 108.6-32.4Q105.8-29.16 103.52-27.6L103.52-27.6 117.24-27.6 117.24-26.44 106.08-26.44 106.08-16.52ZM86-25.12L86-25.12 86.36-25.36Q91.2-24.04 92.2-21.32L92.2-21.32Q92.84-19.56 91.64-18.4 90.44-17.24 88.88-18.16L88.88-18.16Q88.56-18.32 88.24-18.6L88.24-18.6Q88.2-20.2 87.56-22 86.92-23.8 86-25.12ZM107.4-17.68L107.4-17.68 106.88-18.04Q108.16-20.76 109.8-25.56L109.8-25.56 113.68-23.16Q110.44-19.6 107.4-17.68ZM122.92-33.08L122.92-33.08 123.24-33.32Q128.96-33.04 130.56-30.32L130.56-30.32Q131.48-28.68 130.44-27.28L130.44-27.28Q129.4-25.92 127.6-26.52L127.6-26.52Q127.16-26.64 126.76-26.92L126.76-26.92Q126.4-28.48 125.28-30.16L125.28-30.16Q124.2-31.88 122.92-33.08ZM143.88-16.08L143.88-24.12 140.32-24.12 140.32-16.08 143.88-16.08ZM151.6-16.08L151.6-24.12 148.2-24.12 148.2-16.08 151.6-16.08ZM148.2-14.92L148.2-6.24 151.6-6.24 151.6-14.92 148.2-14.92ZM140.32-14.92L140.32-6.24 143.88-6.24 143.88-14.92 140.32-14.92ZM136.72-2.48L136.04-2.48 136.04-27.12 140.6-25.24 143.88-25.24 143.88-32.88 148.2-32.32 148.2-25.24 156-25.24 156-4.08Q155.92-3.8 154.64-3.32L154.64-3.32Q153.36-2.88 152.32-2.88L152.32-2.88 151.6-2.88 151.6-5.08 140.32-5.08 140.32-3.96Q140.32-3.56 139.16-3L139.16-3Q138-2.48 136.72-2.48L136.72-2.48ZM128.2-14.8L134.68-14.8 134.68-13.32Q132.92-8.52 128.64-4.92L128.64-4.92Q128.88-4.8 129.28-4.56L129.28-4.56Q131.52-2.68 135.24-2.04L135.24-2.04Q139-1.4 145.88-1.44L145.88-1.44Q154.4-1.44 159.04-1.72L159.04-1.72 159.04-1.24Q157.68-0.96 156.84 0.12L156.84 0.12Q156 1.24 155.8 2.68L155.8 2.68 144.36 2.68Q138.04 2.68 134.68 1.4L134.68 1.4Q131.36 0.12 128.76-3.08L128.76-3.08Q127.96-4.16 127.4-3.04L127.4-3.04Q125.88-0.32 124.68 2.36L124.68 2.36Q124.8 2.88 124.32 3.2L124.32 3.2 121.16-1.36Q122-1.8 124.12-3.12L124.12-3.12Q126.28-4.44 127-4.8L127-4.8Q129.12-8.64 129.96-13.68L129.96-13.68 124.12-13.68 124.12-15.76Q126.36-18.88 128.28-22.24L128.28-22.24 122.08-22.24 121.72-23.4 132.28-23.4 132.28-21.12Q129.48-16.68 128.2-14.8L128.2-14.8ZM181.92-29.12L178.16-29.12 178.16-0.4 181.92-0.4 181.92-29.12ZM186.72-0.4L198.92-0.4 198.92 0.76Q198.92 0.76 161.76 0.76L161.76 0.76 161.4-0.4 173.36-0.4 173.36-29.12 163.04-29.12 162.72-30.24 197.04-30.24 197.04-29.12 186.72-29.12 186.72-10.2Q189.68-17.76 191.24-23.64L191.24-23.64 195.52-20.92Q191.6-13.2 186.72-7.84L186.72-7.84 186.72-0.4ZM164.92-22.56L164.92-22.56 165.48-22.72Q171.28-18.04 172.48-12.76L172.48-12.76Q173.2-9.48 171.88-7.84L171.88-7.84Q170.68-6.4 168.92-7.68L168.92-7.68Q168.64-7.88 168.36-8.16L168.36-8.16Q168.32-13.64 164.92-22.56Z" transform="translate(-1.3200000524520874, 34.08000183105469)"></path></g> <!----> <!----> <!----> <!----> <!----> <!----> <!----></g></g> <g data-gra="path-slogan" fill-rule="" class="tp-slogan iconsvg-slogansvg" fill="#333" transform="translate(5,45.60000228881836)"><rect x="0" height="1" y="3.2300000190734863" width="56.29401779174805"></rect> <rect height="1" y="3.2300000190734863" width="52.29401779174805" x="135.30597305297852"></rect> <g transform="translate(59.29401779174805,0)"><g transform="scale(1)"><path d="M5.98-5.08L5.98-5.08L5.08-5.08Q5-6.45 3.28-6.52L3.28-6.52Q1.68-6.48 1.68-5.27L1.68-5.27Q1.68-4.49 2.54-4.38L2.54-4.38L4.57-3.91Q6.17-3.52 6.17-1.95L6.17-1.95Q6.13 0.04 3.36 0.12L3.36 0.12Q1.84 0.12 1.21-0.51L1.21-0.51Q0.43-1.09 0.47-2.30L0.47-2.30L1.41-2.30Q1.45-0.66 3.36-0.63L3.36-0.63Q5.23-0.66 5.27-1.84L5.27-1.84Q5.43-2.81 3.71-3.13L3.71-3.13L2.23-3.44Q0.70-3.87 0.70-5.16L0.70-5.16Q0.82-7.27 3.20-7.34L3.20-7.34Q5.90-7.34 5.98-5.08ZM12.11 0L11.41-2.07L8.52-2.07L7.77 0L6.80 0L9.49-7.15L10.59-7.15L13.16 0L12.11 0ZM9.96-6.09L8.83-2.93L11.05-2.93L10-6.09L9.96-6.09ZM15.20-7.15L18.79-1.37L18.79-7.15L19.73-7.15L19.73 0L18.63 0L15-5.78L14.96-5.78L14.96 0L14.02 0L14.02-7.15L15.20-7.15ZM26.99-7.15L24.30-2.89L24.30 0L23.32 0L23.32-2.89L20.63-7.15L21.76-7.15L23.79-3.71L25.86-7.15L26.99-7.15ZM32.58 0L31.88-2.07L28.98-2.07L28.24 0L27.27 0L29.96-7.15L31.05-7.15L33.63 0L32.58 0ZM30.43-6.09L29.30-2.93L31.52-2.93L30.47-6.09L30.43-6.09ZM40.31-6.37L38.36-6.37L38.36-3.87L40.27-3.87Q41.76-3.87 41.76-5.16L41.76-5.16Q41.76-6.33 40.31-6.37L40.31-6.37ZM40.63-3.01L38.36-3.01L38.36 0L37.38 0L37.38-7.15L40.63-7.15Q42.66-7.07 42.73-5.16L42.73-5.16Q42.62-3.09 40.63-3.01L40.63-3.01ZM48.63-2.66L48.63-7.15L49.61-7.15L49.61-2.54Q49.49 0.04 46.68 0.12L46.68 0.12Q44.06 0.04 43.95-2.38L43.95-2.38L43.95-7.15L44.92-7.15L44.92-2.66Q44.96-0.70 46.72-0.66L46.72-0.66Q48.63-0.70 48.63-2.66L48.63-2.66ZM54.02 0L51.13 0L51.13-7.15L54.06-7.15Q56.95-6.99 57.07-3.67L57.07-3.67Q56.91-0.08 54.02 0L54.02 0ZM53.91-6.37L52.11-6.37L52.11-0.82L53.98-0.82Q56.02-0.94 56.09-3.59L56.09-3.59Q56.05-6.29 53.91-6.37L53.91-6.37ZM58.44-7.15L59.41-7.15L59.41 0L58.44 0L58.44-7.15ZM66.84-7.15L64.14-2.89L64.14 0L63.16 0L63.16-2.89L60.47-7.15L61.60-7.15L63.63-3.71L65.70-7.15L66.84-7.15ZM72.42 0L71.72-2.07L68.83-2.07L68.09 0L67.11 0L69.80-7.15L70.90-7.15L73.48 0L72.42 0ZM70.27-6.09L69.14-2.93L71.37-2.93L70.31-6.09L70.27-6.09Z" transform="translate(-0.466889880952381, 7.34375)"></path></g></g></g></g></g><defs v-gra="od"></defs></svg>